<?xml version="1.0" encoding="UTF-8"?>
<svg xmlns="http://www.w3.org/2000/svg" xmlns:xlink="http://www.w3.org/1999/xlink" width="504pt" height="252pt" viewBox="0 0 504 252">
<defs>
<g>
<g id="glyph-0-0">
<path d="M 0.828125 -7.953125 L 7.234375 -7.953125 L 7.234375 0 L 0.828125 0 Z M 6.234375 -1 L 6.234375 -6.953125 L 1.828125 -6.953125 L 1.828125 -1 Z M 6.234375 -1 "/>
</g>
<g id="glyph-0-1">
<path d="M 5.71875 -0.1875 C 5.28125 0.0703125 4.738281 0.203125 4.09375 0.203125 C 3.039062 0.203125 2.179688 -0.160156 1.515625 -0.890625 C 0.804688 -1.617188 0.453125 -2.617188 0.453125 -3.890625 C 0.453125 -5.179688 0.804688 -6.210938 1.515625 -6.984375 C 2.222656 -7.765625 3.160156 -8.15625 4.328125 -8.15625 C 5.335938 -8.15625 6.148438 -7.898438 6.765625 -7.390625 C 7.378906 -6.878906 7.734375 -6.238281 7.828125 -5.46875 L 6.1875 -5.46875 C 6.0625 -6.007812 5.753906 -6.390625 5.265625 -6.609375 C 4.992188 -6.722656 4.691406 -6.78125 4.359375 -6.78125 C 3.710938 -6.78125 3.179688 -6.535156 2.765625 -6.046875 C 2.359375 -5.566406 2.15625 -4.84375 2.15625 -3.875 C 2.15625 -2.894531 2.378906 -2.203125 2.828125 -1.796875 C 3.273438 -1.390625 3.78125 -1.1875 4.34375 -1.1875 C 4.90625 -1.1875 5.363281 -1.347656 5.71875 -1.671875 C 6.070312 -1.992188 6.289062 -2.414062 6.375 -2.9375 L 4.53125 -2.9375 L 4.53125 -4.265625 L 7.84375 -4.265625 L 7.84375 0 L 6.75 0 L 6.578125 -1 C 6.253906 -0.613281 5.96875 -0.34375 5.71875 -0.1875 Z M 5.71875 -0.1875 "/>
</g>
<g id="glyph-0-2">
<path d="M 5.546875 -3.0625 L 5.546875 -7.953125 L 7.234375 -7.953125 L 7.234375 -3.0625 C 7.234375 -2.21875 7.101562 -1.5625 6.84375 -1.09375 C 6.351562 -0.226562 5.421875 0.203125 4.046875 0.203125 C 2.660156 0.203125 1.722656 -0.226562 1.234375 -1.09375 C 0.972656 -1.5625 0.84375 -2.21875 0.84375 -3.0625 L 0.84375 -7.953125 L 2.53125 -7.953125 L 2.53125 -3.0625 C 2.53125 -2.519531 2.59375 -2.117188 2.71875 -1.859375 C 2.925781 -1.421875 3.367188 -1.203125 4.046875 -1.203125 C 4.710938 -1.203125 5.144531 -1.421875 5.34375 -1.859375 C 5.476562 -2.117188 5.546875 -2.519531 5.546875 -3.0625 Z M 5.546875 -3.0625 "/>
</g>
<g id="glyph-0-3">
<path d="M 7.234375 0 L 5.21875 0 L 3.703125 -2.703125 L 2.109375 0 L 0.171875 0 L 2.734375 -4.046875 L 0.296875 -7.953125 L 2.28125 -7.953125 L 3.703125 -5.359375 L 5.15625 -7.953125 L 7.078125 -7.953125 L 4.65625 -4.109375 Z M 7.234375 0 "/>
</g>
<g id="glyph-0-4">
<path d="M 7.265625 -7.953125 L 4.59375 -2.984375 L 4.59375 0 L 2.9375 0 L 2.9375 -2.984375 L 0.1875 -7.953125 L 2.140625 -7.953125 L 3.796875 -4.484375 L 5.375 -7.953125 Z M 7.265625 -7.953125 "/>
</g>
<g id="glyph-1-0">
<path d="M 0.359375 0 L 0.359375 -7.921875 L 6.640625 -7.921875 L 6.640625 0 Z M 5.65625 -1 L 5.65625 -6.9375 L 1.34375 -6.9375 L 1.34375 -1 Z M 5.65625 -1 "/>
</g>
<g id="glyph-1-1">
<path d="M 4.265625 -8.125 C 5.015625 -8.125 5.660156 -7.984375 6.203125 -7.703125 C 6.984375 -7.285156 7.460938 -6.5625 7.640625 -5.53125 L 6.578125 -5.53125 C 6.453125 -6.101562 6.1875 -6.519531 5.78125 -6.78125 C 5.375 -7.050781 4.859375 -7.1875 4.234375 -7.1875 C 3.503906 -7.1875 2.890625 -6.910156 2.390625 -6.359375 C 1.890625 -5.804688 1.640625 -4.988281 1.640625 -3.90625 C 1.640625 -2.957031 1.84375 -2.1875 2.25 -1.59375 C 2.664062 -1.007812 3.34375 -0.71875 4.28125 -0.71875 C 4.988281 -0.71875 5.578125 -0.921875 6.046875 -1.328125 C 6.523438 -1.742188 6.769531 -2.414062 6.78125 -3.34375 L 4.296875 -3.34375 L 4.296875 -4.234375 L 7.765625 -4.234375 L 7.765625 0 L 7.078125 0 L 6.828125 -1.015625 C 6.460938 -0.617188 6.140625 -0.34375 5.859375 -0.1875 C 5.390625 0.0703125 4.789062 0.203125 4.0625 0.203125 C 3.125 0.203125 2.316406 -0.0976562 1.640625 -0.703125 C 0.898438 -1.460938 0.53125 -2.507812 0.53125 -3.84375 C 0.53125 -5.164062 0.890625 -6.21875 1.609375 -7 C 2.296875 -7.75 3.179688 -8.125 4.265625 -8.125 Z M 4.09375 -8.140625 Z M 4.09375 -8.140625 "/>
</g>
<g id="glyph-1-2">
<path d="M 3.125 -5.90625 C 3.53125 -5.90625 3.925781 -5.804688 4.3125 -5.609375 C 4.695312 -5.421875 4.988281 -5.175781 5.1875 -4.875 C 5.382812 -4.582031 5.515625 -4.238281 5.578125 -3.84375 C 5.628906 -3.582031 5.65625 -3.160156 5.65625 -2.578125 L 1.421875 -2.578125 C 1.441406 -1.992188 1.582031 -1.523438 1.84375 -1.171875 C 2.101562 -0.816406 2.503906 -0.640625 3.046875 -0.640625 C 3.554688 -0.640625 3.960938 -0.804688 4.265625 -1.140625 C 4.429688 -1.328125 4.550781 -1.550781 4.625 -1.8125 L 5.578125 -1.8125 C 5.554688 -1.601562 5.472656 -1.367188 5.328125 -1.109375 C 5.191406 -0.847656 5.035156 -0.632812 4.859375 -0.46875 C 4.554688 -0.175781 4.191406 0.0195312 3.765625 0.125 C 3.523438 0.175781 3.257812 0.203125 2.96875 0.203125 C 2.25 0.203125 1.640625 -0.0546875 1.140625 -0.578125 C 0.640625 -1.097656 0.390625 -1.832031 0.390625 -2.78125 C 0.390625 -3.707031 0.640625 -4.457031 1.140625 -5.03125 C 1.648438 -5.613281 2.3125 -5.90625 3.125 -5.90625 Z M 4.671875 -3.34375 C 4.628906 -3.769531 4.535156 -4.109375 4.390625 -4.359375 C 4.117188 -4.828125 3.675781 -5.0625 3.0625 -5.0625 C 2.613281 -5.0625 2.238281 -4.898438 1.9375 -4.578125 C 1.632812 -4.253906 1.472656 -3.84375 1.453125 -3.34375 Z M 3.03125 -5.921875 Z M 3.03125 -5.921875 "/>
</g>
<g id="glyph-1-3">
<path d="M 0.71875 -5.78125 L 1.640625 -5.78125 L 1.640625 -4.953125 C 1.910156 -5.296875 2.195312 -5.539062 2.5 -5.6875 C 2.8125 -5.832031 3.148438 -5.90625 3.515625 -5.90625 C 4.335938 -5.90625 4.894531 -5.617188 5.1875 -5.046875 C 5.34375 -4.734375 5.421875 -4.285156 5.421875 -3.703125 L 5.421875 0 L 4.4375 0 L 4.4375 -3.640625 C 4.4375 -3.992188 4.382812 -4.28125 4.28125 -4.5 C 4.101562 -4.851562 3.789062 -5.03125 3.34375 -5.03125 C 3.113281 -5.03125 2.921875 -5.007812 2.765625 -4.96875 C 2.503906 -4.882812 2.273438 -4.722656 2.078125 -4.484375 C 1.910156 -4.296875 1.800781 -4.097656 1.75 -3.890625 C 1.707031 -3.691406 1.6875 -3.40625 1.6875 -3.03125 L 1.6875 0 L 0.71875 0 Z M 3 -5.921875 Z M 3 -5.921875 "/>
</g>
<g id="glyph-1-4">
<path d="M 3 -0.625 C 3.644531 -0.625 4.085938 -0.867188 4.328125 -1.359375 C 4.566406 -1.847656 4.6875 -2.390625 4.6875 -2.984375 C 4.6875 -3.523438 4.597656 -3.960938 4.421875 -4.296875 C 4.148438 -4.828125 3.679688 -5.09375 3.015625 -5.09375 C 2.421875 -5.09375 1.988281 -4.863281 1.71875 -4.40625 C 1.445312 -3.957031 1.3125 -3.414062 1.3125 -2.78125 C 1.3125 -2.164062 1.445312 -1.648438 1.71875 -1.234375 C 1.988281 -0.828125 2.414062 -0.625 3 -0.625 Z M 3.046875 -5.9375 C 3.785156 -5.9375 4.410156 -5.6875 4.921875 -5.1875 C 5.441406 -4.695312 5.703125 -3.972656 5.703125 -3.015625 C 5.703125 -2.078125 5.472656 -1.304688 5.015625 -0.703125 C 4.566406 -0.0976562 3.863281 0.203125 2.90625 0.203125 C 2.113281 0.203125 1.484375 -0.0625 1.015625 -0.59375 C 0.546875 -1.132812 0.3125 -1.859375 0.3125 -2.765625 C 0.3125 -3.734375 0.554688 -4.503906 1.046875 -5.078125 C 1.546875 -5.648438 2.210938 -5.9375 3.046875 -5.9375 Z M 3.015625 -5.921875 Z M 3.015625 -5.921875 "/>
</g>
<g id="glyph-1-5">
<path d="M 0.90625 -7.390625 L 1.890625 -7.390625 L 1.890625 -5.78125 L 2.8125 -5.78125 L 2.8125 -4.984375 L 1.890625 -4.984375 L 1.890625 -1.21875 C 1.890625 -1.007812 1.957031 -0.875 2.09375 -0.8125 C 2.164062 -0.769531 2.289062 -0.75 2.46875 -0.75 C 2.519531 -0.75 2.570312 -0.75 2.625 -0.75 C 2.675781 -0.75 2.738281 -0.753906 2.8125 -0.765625 L 2.8125 0 C 2.695312 0.03125 2.578125 0.0507812 2.453125 0.0625 C 2.335938 0.0820312 2.210938 0.09375 2.078125 0.09375 C 1.617188 0.09375 1.304688 -0.0195312 1.140625 -0.25 C 0.984375 -0.488281 0.90625 -0.789062 0.90625 -1.15625 L 0.90625 -4.984375 L 0.125 -4.984375 L 0.125 -5.78125 L 0.90625 -5.78125 Z M 0.90625 -7.390625 "/>
</g>
<g id="glyph-1-6">
<path d="M 4.328125 -5.78125 L 5.390625 -5.78125 C 5.253906 -5.40625 4.953125 -4.554688 4.484375 -3.234375 C 4.128906 -2.242188 3.832031 -1.4375 3.59375 -0.8125 C 3.03125 0.652344 2.632812 1.550781 2.40625 1.875 C 2.175781 2.207031 1.78125 2.375 1.21875 2.375 C 1.082031 2.375 0.976562 2.363281 0.90625 2.34375 C 0.832031 2.332031 0.742188 2.316406 0.640625 2.296875 L 0.640625 1.40625 C 0.804688 1.457031 0.925781 1.488281 1 1.5 C 1.070312 1.507812 1.140625 1.515625 1.203125 1.515625 C 1.378906 1.515625 1.507812 1.484375 1.59375 1.421875 C 1.675781 1.359375 1.75 1.285156 1.8125 1.203125 C 1.832031 1.171875 1.894531 1.019531 2 0.75 C 2.113281 0.488281 2.195312 0.296875 2.25 0.171875 L 0.109375 -5.78125 L 1.21875 -5.78125 L 2.765625 -1.078125 Z M 2.75 -5.921875 Z M 2.75 -5.921875 "/>
</g>
<g id="glyph-1-7">
<path d="M 3.15625 -0.65625 C 3.601562 -0.65625 3.976562 -0.84375 4.28125 -1.21875 C 4.582031 -1.601562 4.734375 -2.171875 4.734375 -2.921875 C 4.734375 -3.378906 4.664062 -3.773438 4.53125 -4.109375 C 4.28125 -4.742188 3.820312 -5.0625 3.15625 -5.0625 C 2.476562 -5.0625 2.015625 -4.726562 1.765625 -4.0625 C 1.628906 -3.695312 1.5625 -3.238281 1.5625 -2.6875 C 1.5625 -2.238281 1.628906 -1.859375 1.765625 -1.546875 C 2.015625 -0.953125 2.476562 -0.65625 3.15625 -0.65625 Z M 0.640625 -5.75 L 1.578125 -5.75 L 1.578125 -4.984375 C 1.773438 -5.242188 1.988281 -5.445312 2.21875 -5.59375 C 2.539062 -5.8125 2.925781 -5.921875 3.375 -5.921875 C 4.03125 -5.921875 4.582031 -5.664062 5.03125 -5.15625 C 5.488281 -4.65625 5.71875 -3.941406 5.71875 -3.015625 C 5.71875 -1.753906 5.390625 -0.851562 4.734375 -0.3125 C 4.316406 0.0195312 3.832031 0.1875 3.28125 0.1875 C 2.84375 0.1875 2.476562 0.0898438 2.1875 -0.09375 C 2.007812 -0.195312 1.816406 -0.378906 1.609375 -0.640625 L 1.609375 2.296875 L 0.640625 2.296875 Z M 0.640625 -5.75 "/>
</g>
<g id="glyph-1-8">
<path d="M 4.1875 -8.140625 C 5.1875 -8.140625 5.960938 -7.875 6.515625 -7.34375 C 7.066406 -6.8125 7.375 -6.210938 7.4375 -5.546875 L 6.390625 -5.546875 C 6.273438 -6.054688 6.039062 -6.457031 5.6875 -6.75 C 5.332031 -7.050781 4.832031 -7.203125 4.1875 -7.203125 C 3.40625 -7.203125 2.773438 -6.925781 2.296875 -6.375 C 1.816406 -5.832031 1.578125 -4.992188 1.578125 -3.859375 C 1.578125 -2.929688 1.789062 -2.175781 2.21875 -1.59375 C 2.65625 -1.019531 3.304688 -0.734375 4.171875 -0.734375 C 4.960938 -0.734375 5.5625 -1.039062 5.96875 -1.65625 C 6.195312 -1.96875 6.363281 -2.382812 6.46875 -2.90625 L 7.515625 -2.90625 C 7.421875 -2.070312 7.113281 -1.375 6.59375 -0.8125 C 5.957031 -0.132812 5.109375 0.203125 4.046875 0.203125 C 3.117188 0.203125 2.34375 -0.0703125 1.71875 -0.625 C 0.894531 -1.363281 0.484375 -2.503906 0.484375 -4.046875 C 0.484375 -5.210938 0.789062 -6.171875 1.40625 -6.921875 C 2.082031 -7.734375 3.007812 -8.140625 4.1875 -8.140625 Z M 3.96875 -8.140625 Z M 3.96875 -8.140625 "/>
</g>
<g id="glyph-1-9">
<path d="M 0.953125 -6.65625 C 0.960938 -7.0625 1.035156 -7.359375 1.171875 -7.546875 C 1.390625 -7.867188 1.820312 -8.03125 2.46875 -8.03125 C 2.53125 -8.03125 2.59375 -8.03125 2.65625 -8.03125 C 2.726562 -8.03125 2.804688 -8.023438 2.890625 -8.015625 L 2.890625 -7.125 C 2.785156 -7.132812 2.707031 -7.140625 2.65625 -7.140625 C 2.613281 -7.140625 2.578125 -7.140625 2.546875 -7.140625 C 2.242188 -7.140625 2.0625 -7.0625 2 -6.90625 C 1.945312 -6.757812 1.921875 -6.375 1.921875 -5.75 L 2.890625 -5.75 L 2.890625 -4.984375 L 1.921875 -4.984375 L 1.921875 0 L 0.953125 0 L 0.953125 -4.984375 L 0.15625 -4.984375 L 0.15625 -5.75 L 0.953125 -5.75 Z M 0.953125 -6.65625 "/>
</g>
<g id="glyph-1-10">
<path d="M 1.6875 -5.78125 L 1.6875 -1.9375 C 1.6875 -1.644531 1.734375 -1.40625 1.828125 -1.21875 C 1.992188 -0.875 2.3125 -0.703125 2.78125 -0.703125 C 3.457031 -0.703125 3.921875 -1.003906 4.171875 -1.609375 C 4.304688 -1.929688 4.375 -2.375 4.375 -2.9375 L 4.375 -5.78125 L 5.34375 -5.78125 L 5.34375 0 L 4.421875 0 L 4.4375 -0.859375 C 4.3125 -0.628906 4.15625 -0.441406 3.96875 -0.296875 C 3.59375 0.00390625 3.140625 0.15625 2.609375 0.15625 C 1.785156 0.15625 1.226562 -0.117188 0.9375 -0.671875 C 0.769531 -0.960938 0.6875 -1.351562 0.6875 -1.84375 L 0.6875 -5.78125 Z M 3.015625 -5.921875 Z M 3.015625 -5.921875 "/>
</g>
<g id="glyph-1-11">
<path d="M 1.328125 -2.828125 C 1.328125 -2.203125 1.457031 -1.679688 1.71875 -1.265625 C 1.976562 -0.847656 2.398438 -0.640625 2.984375 -0.640625 C 3.429688 -0.640625 3.800781 -0.832031 4.09375 -1.21875 C 4.382812 -1.601562 4.53125 -2.160156 4.53125 -2.890625 C 4.53125 -3.617188 4.378906 -4.15625 4.078125 -4.5 C 3.773438 -4.851562 3.40625 -5.03125 2.96875 -5.03125 C 2.476562 -5.03125 2.082031 -4.84375 1.78125 -4.46875 C 1.476562 -4.09375 1.328125 -3.546875 1.328125 -2.828125 Z M 2.78125 -5.875 C 3.226562 -5.875 3.601562 -5.78125 3.90625 -5.59375 C 4.070312 -5.488281 4.265625 -5.300781 4.484375 -5.03125 L 4.484375 -7.953125 L 5.421875 -7.953125 L 5.421875 0 L 4.546875 0 L 4.546875 -0.796875 C 4.316406 -0.441406 4.046875 -0.1875 3.734375 -0.03125 C 3.429688 0.121094 3.082031 0.203125 2.6875 0.203125 C 2.039062 0.203125 1.476562 -0.0664062 1 -0.609375 C 0.53125 -1.148438 0.296875 -1.867188 0.296875 -2.765625 C 0.296875 -3.609375 0.507812 -4.335938 0.9375 -4.953125 C 1.375 -5.566406 1.988281 -5.875 2.78125 -5.875 Z M 2.78125 -5.875 "/>
</g>
<g id="glyph-1-12">
<path d="M 0.734375 -5.78125 L 1.65625 -5.78125 L 1.65625 -4.78125 C 1.738281 -4.976562 1.925781 -5.210938 2.21875 -5.484375 C 2.507812 -5.765625 2.847656 -5.90625 3.234375 -5.90625 C 3.253906 -5.90625 3.285156 -5.898438 3.328125 -5.890625 C 3.367188 -5.890625 3.441406 -5.882812 3.546875 -5.875 L 3.546875 -4.859375 C 3.492188 -4.867188 3.441406 -4.875 3.390625 -4.875 C 3.335938 -4.875 3.285156 -4.875 3.234375 -4.875 C 2.742188 -4.875 2.363281 -4.71875 2.09375 -4.40625 C 1.832031 -4.09375 1.703125 -3.734375 1.703125 -3.328125 L 1.703125 0 L 0.734375 0 Z M 0.734375 -5.78125 "/>
</g>
<g id="glyph-1-13">
<path d="M 1.296875 -1.8125 C 1.316406 -1.488281 1.394531 -1.238281 1.53125 -1.0625 C 1.78125 -0.75 2.207031 -0.59375 2.8125 -0.59375 C 3.164062 -0.59375 3.476562 -0.671875 3.75 -0.828125 C 4.03125 -0.984375 4.171875 -1.226562 4.171875 -1.5625 C 4.171875 -1.8125 4.054688 -2 3.828125 -2.125 C 3.691406 -2.207031 3.414062 -2.300781 3 -2.40625 L 2.234375 -2.59375 C 1.742188 -2.71875 1.378906 -2.851562 1.140625 -3 C 0.722656 -3.257812 0.515625 -3.625 0.515625 -4.09375 C 0.515625 -4.632812 0.710938 -5.070312 1.109375 -5.40625 C 1.503906 -5.75 2.035156 -5.921875 2.703125 -5.921875 C 3.566406 -5.921875 4.191406 -5.664062 4.578125 -5.15625 C 4.816406 -4.832031 4.9375 -4.484375 4.9375 -4.109375 L 4.015625 -4.109375 C 3.992188 -4.328125 3.914062 -4.53125 3.78125 -4.71875 C 3.5625 -4.96875 3.175781 -5.09375 2.625 -5.09375 C 2.257812 -5.09375 1.976562 -5.019531 1.78125 -4.875 C 1.59375 -4.738281 1.5 -4.554688 1.5 -4.328125 C 1.5 -4.078125 1.625 -3.878906 1.875 -3.734375 C 2.019531 -3.640625 2.234375 -3.554688 2.515625 -3.484375 L 3.15625 -3.328125 C 3.851562 -3.160156 4.320312 -3 4.5625 -2.84375 C 4.9375 -2.59375 5.125 -2.203125 5.125 -1.671875 C 5.125 -1.160156 4.925781 -0.71875 4.53125 -0.34375 C 4.144531 0.0273438 3.550781 0.21875 2.75 0.21875 C 1.894531 0.21875 1.285156 0.0234375 0.921875 -0.359375 C 0.566406 -0.753906 0.378906 -1.238281 0.359375 -1.8125 Z M 2.71875 -5.921875 Z M 2.71875 -5.921875 "/>
</g>
<g id="glyph-1-14">
<path d="M 0.9375 -7.921875 L 6.71875 -7.921875 L 6.71875 -6.953125 L 1.984375 -6.953125 L 1.984375 -4.546875 L 6.359375 -4.546875 L 6.359375 -3.625 L 1.984375 -3.625 L 1.984375 -0.9375 L 6.796875 -0.9375 L 6.796875 0 L 0.9375 0 Z M 3.875 -7.921875 Z M 3.875 -7.921875 "/>
</g>
<g id="glyph-1-15">
<path d="M 0.15625 -5.78125 L 1.421875 -5.78125 L 2.75 -3.75 L 4.09375 -5.78125 L 5.265625 -5.75 L 3.328125 -2.96875 L 5.359375 0 L 4.109375 0 L 2.6875 -2.171875 L 1.296875 0 L 0.0625 0 L 2.09375 -2.96875 Z M 0.15625 -5.78125 "/>
</g>
<g id="glyph-1-16">
<path d="M 4.265625 -8.140625 C 5.660156 -8.140625 6.695312 -7.691406 7.375 -6.796875 C 7.894531 -6.085938 8.15625 -5.1875 8.15625 -4.09375 C 8.15625 -2.914062 7.851562 -1.9375 7.25 -1.15625 C 6.550781 -0.226562 5.546875 0.234375 4.234375 0.234375 C 3.015625 0.234375 2.054688 -0.164062 1.359375 -0.96875 C 0.742188 -1.75 0.4375 -2.734375 0.4375 -3.921875 C 0.4375 -4.992188 0.703125 -5.910156 1.234375 -6.671875 C 1.910156 -7.648438 2.921875 -8.140625 4.265625 -8.140625 Z M 4.375 -0.734375 C 5.3125 -0.734375 5.992188 -1.070312 6.421875 -1.75 C 6.847656 -2.425781 7.0625 -3.203125 7.0625 -4.078125 C 7.0625 -5.015625 6.816406 -5.765625 6.328125 -6.328125 C 5.835938 -6.898438 5.171875 -7.1875 4.328125 -7.1875 C 3.503906 -7.1875 2.832031 -6.90625 2.3125 -6.34375 C 1.800781 -5.78125 1.546875 -4.945312 1.546875 -3.84375 C 1.546875 -2.96875 1.765625 -2.226562 2.203125 -1.625 C 2.648438 -1.03125 3.375 -0.734375 4.375 -0.734375 Z M 4.296875 -8.140625 Z M 4.296875 -8.140625 "/>
</g>
<g id="glyph-1-17">
<path d="M 2.9375 -5.9375 C 3.59375 -5.9375 4.125 -5.78125 4.53125 -5.46875 C 4.9375 -5.15625 5.179688 -4.609375 5.265625 -3.828125 L 4.328125 -3.828125 C 4.265625 -4.191406 4.128906 -4.488281 3.921875 -4.71875 C 3.722656 -4.957031 3.394531 -5.078125 2.9375 -5.078125 C 2.320312 -5.078125 1.878906 -4.773438 1.609375 -4.171875 C 1.441406 -3.773438 1.359375 -3.289062 1.359375 -2.71875 C 1.359375 -2.132812 1.476562 -1.644531 1.71875 -1.25 C 1.96875 -0.851562 2.351562 -0.65625 2.875 -0.65625 C 3.28125 -0.65625 3.597656 -0.78125 3.828125 -1.03125 C 4.066406 -1.28125 4.234375 -1.617188 4.328125 -2.046875 L 5.265625 -2.046875 C 5.160156 -1.273438 4.890625 -0.710938 4.453125 -0.359375 C 4.023438 -0.00390625 3.472656 0.171875 2.796875 0.171875 C 2.046875 0.171875 1.441406 -0.101562 0.984375 -0.65625 C 0.535156 -1.207031 0.3125 -1.898438 0.3125 -2.734375 C 0.3125 -3.742188 0.554688 -4.53125 1.046875 -5.09375 C 1.546875 -5.65625 2.175781 -5.9375 2.9375 -5.9375 Z M 2.78125 -5.921875 Z M 2.78125 -5.921875 "/>
</g>
<g id="glyph-1-18">
<path d="M 0.71875 -5.78125 L 1.671875 -5.78125 L 1.671875 -4.953125 C 1.898438 -5.242188 2.109375 -5.453125 2.296875 -5.578125 C 2.617188 -5.796875 2.984375 -5.90625 3.390625 -5.90625 C 3.847656 -5.90625 4.21875 -5.789062 4.5 -5.5625 C 4.65625 -5.4375 4.800781 -5.25 4.9375 -5 C 5.144531 -5.300781 5.394531 -5.523438 5.6875 -5.671875 C 5.976562 -5.828125 6.304688 -5.90625 6.671875 -5.90625 C 7.453125 -5.90625 7.984375 -5.625 8.265625 -5.0625 C 8.410156 -4.757812 8.484375 -4.351562 8.484375 -3.84375 L 8.484375 0 L 7.46875 0 L 7.46875 -4.015625 C 7.46875 -4.398438 7.375 -4.660156 7.1875 -4.796875 C 7 -4.941406 6.765625 -5.015625 6.484375 -5.015625 C 6.097656 -5.015625 5.769531 -4.882812 5.5 -4.625 C 5.226562 -4.375 5.09375 -3.953125 5.09375 -3.359375 L 5.09375 0 L 4.09375 0 L 4.09375 -3.765625 C 4.09375 -4.160156 4.046875 -4.445312 3.953125 -4.625 C 3.804688 -4.894531 3.535156 -5.03125 3.140625 -5.03125 C 2.765625 -5.03125 2.425781 -4.890625 2.125 -4.609375 C 1.832031 -4.328125 1.6875 -3.8125 1.6875 -3.0625 L 1.6875 0 L 0.71875 0 Z M 0.71875 -5.78125 "/>
</g>
</g>
</defs>
<rect x="-50.4" y="-25.2" width="604.8" height="302.4" fill="rgb(100%, 100%, 100%)" fill-opacity="1"/>
<rect x="-50.4" y="-25.2" width="604.8" height="302.4" fill="rgb(100%, 100%, 100%)" fill-opacity="1"/>
<path fill="none" stroke-width="1.280374" stroke-linecap="butt" stroke-linejoin="round" stroke="rgb(0%, 0%, 0%)" stroke-opacity="1" stroke-miterlimit="1" d="M 69.660156 226.019531 L 229.324219 226.019531 "/>
<path fill-rule="nonzero" fill="rgb(0%, 0%, 0%)" fill-opacity="1" stroke-width="1.280374" stroke-linecap="butt" stroke-linejoin="round" stroke="rgb(0%, 0%, 0%)" stroke-opacity="1" stroke-miterlimit="1" d="M 225.007812 228.507812 L 229.324219 226.019531 L 225.007812 223.527344 Z M 225.007812 228.507812 "/>
<path fill="none" stroke-width="1.280374" stroke-linecap="butt" stroke-linejoin="round" stroke="rgb(0%, 0%, 0%)" stroke-opacity="1" stroke-miterlimit="1" d="M 344.167969 46.164062 L 344.15625 46.1875 L 343.121094 48.207031 L 342.082031 50.226562 L 341.046875 52.25 L 338.976562 56.289062 L 337.941406 58.3125 L 334.835938 64.371094 L 333.800781 66.394531 L 330.695312 72.453125 L 329.660156 74.476562 L 328.625 76.496094 L 327.585938 78.515625 L 326.550781 80.535156 L 325.515625 82.558594 L 323.445312 86.597656 L 322.410156 88.621094 L 319.304688 94.679688 L 318.269531 96.703125 L 315.164062 102.761719 L 314.125 104.785156 L 311.019531 110.84375 L 309.984375 112.867188 L 307.914062 116.90625 L 306.878906 118.929688 L 303.773438 124.988281 L 302.738281 127.011719 L 300.667969 131.050781 L 299.628906 133.070312 L 298.59375 135.09375 L 296.523438 139.132812 L 295.488281 141.15625 L 292.382812 147.214844 L 291.347656 149.238281 L 288.242188 155.296875 L 287.207031 157.320312 L 286.167969 159.339844 L 284.097656 163.378906 L 283.0625 165.402344 L 280.992188 169.441406 L 279.957031 171.464844 L 276.851562 177.523438 L 275.816406 179.546875 L 273.746094 183.585938 L 272.707031 185.605469 L 271.671875 187.628906 L 268.566406 193.6875 L 267.53125 195.710938 L 265.460938 199.75 L 264.425781 201.773438 L 262.355469 205.8125 L 262.34375 205.835938 "/>
<path fill-rule="nonzero" fill="rgb(0%, 0%, 0%)" fill-opacity="1" stroke-width="1.280374" stroke-linecap="butt" stroke-linejoin="round" stroke="rgb(0%, 0%, 0%)" stroke-opacity="1" stroke-miterlimit="1" d="M 262.09375 200.863281 L 262.34375 205.835938 L 266.527344 203.132812 Z M 262.09375 200.863281 "/>
<path fill="none" stroke-width="1.280374" stroke-linecap="butt" stroke-linejoin="round" stroke="rgb(0%, 0%, 0%)" stroke-opacity="1" stroke-miterlimit="1" d="M 364.851562 46.164062 L 364.863281 46.1875 L 366.933594 50.226562 L 367.96875 52.25 L 369.003906 54.269531 L 370.042969 56.289062 L 371.078125 58.3125 L 374.183594 64.371094 L 375.21875 66.394531 L 378.324219 72.453125 L 379.359375 74.476562 L 382.464844 80.535156 L 383.5 82.558594 L 384.539062 84.578125 L 385.574219 86.597656 L 386.609375 88.621094 L 389.714844 94.679688 L 390.75 96.703125 L 393.855469 102.761719 L 394.890625 104.785156 L 396.960938 108.824219 L 398 110.84375 L 399.035156 112.867188 L 401.105469 116.90625 L 402.140625 118.929688 L 405.246094 124.988281 L 406.28125 127.011719 L 409.386719 133.070312 L 410.421875 135.09375 L 411.457031 137.113281 L 412.496094 139.132812 L 413.53125 141.15625 L 416.636719 147.214844 L 417.671875 149.238281 L 420.777344 155.296875 L 421.8125 157.320312 L 424.917969 163.378906 L 425.957031 165.402344 L 428.027344 169.441406 L 429.0625 171.464844 L 432.167969 177.523438 L 433.203125 179.546875 L 436.308594 185.605469 L 437.34375 187.628906 L 438.378906 189.648438 L 439.417969 191.667969 L 440.453125 193.6875 L 441.488281 195.710938 L 443.558594 199.75 L 444.59375 201.773438 L 446.664062 205.8125 L 446.675781 205.835938 "/>
<path fill-rule="nonzero" fill="rgb(0%, 0%, 0%)" fill-opacity="1" stroke-width="1.280374" stroke-linecap="butt" stroke-linejoin="round" stroke="rgb(0%, 0%, 0%)" stroke-opacity="1" stroke-miterlimit="1" d="M 442.492188 203.132812 L 446.675781 205.835938 L 446.925781 200.863281 Z M 442.492188 203.132812 "/>
<path fill="none" stroke-width="1.280374" stroke-linecap="butt" stroke-linejoin="round" stroke="rgb(0%, 0%, 0%)" stroke-opacity="1" stroke-miterlimit="1" d="M 274.675781 226.019531 L 434.339844 226.019531 "/>
<path fill-rule="nonzero" fill="rgb(0%, 0%, 0%)" fill-opacity="1" stroke-width="1.280374" stroke-linecap="butt" stroke-linejoin="round" stroke="rgb(0%, 0%, 0%)" stroke-opacity="1" stroke-miterlimit="1" d="M 430.027344 228.507812 L 434.339844 226.019531 L 430.027344 223.527344 Z M 430.027344 228.507812 "/>
<path fill-rule="nonzero" fill="rgb(0%, 0%, 0%)" fill-opacity="1" stroke-width="0.708661" stroke-linecap="round" stroke-linejoin="round" stroke="rgb(0%, 0%, 0%)" stroke-opacity="1" stroke-miterlimit="10" d="M 64.40625 226.019531 C 64.40625 235.644531 56.605469 243.445312 46.980469 243.445312 C 37.355469 243.445312 29.554688 235.644531 29.554688 226.019531 C 29.554688 216.394531 37.355469 208.59375 46.980469 208.59375 C 56.605469 208.59375 64.40625 216.394531 64.40625 226.019531 "/>
<path fill-rule="nonzero" fill="rgb(0%, 0%, 0%)" fill-opacity="1" stroke-width="0.708661" stroke-linecap="round" stroke-linejoin="round" stroke="rgb(0%, 0%, 0%)" stroke-opacity="1" stroke-miterlimit="10" d="M 371.933594 25.980469 C 371.933594 35.605469 364.132812 43.40625 354.507812 43.40625 C 344.886719 43.40625 337.082031 35.605469 337.082031 25.980469 C 337.082031 16.355469 344.886719 8.554688 354.507812 8.554688 C 364.132812 8.554688 371.933594 16.355469 371.933594 25.980469 "/>
<path fill-rule="nonzero" fill="rgb(0%, 0%, 0%)" fill-opacity="1" stroke-width="0.708661" stroke-linecap="round" stroke-linejoin="round" stroke="rgb(0%, 0%, 0%)" stroke-opacity="1" stroke-miterlimit="10" d="M 269.425781 226.019531 C 269.425781 235.644531 261.625 243.445312 252 243.445312 C 242.375 243.445312 234.574219 235.644531 234.574219 226.019531 C 234.574219 216.394531 242.375 208.59375 252 208.59375 C 261.625 208.59375 269.425781 216.394531 269.425781 226.019531 "/>
<path fill-rule="nonzero" fill="rgb(0%, 0%, 0%)" fill-opacity="1" stroke-width="0.708661" stroke-linecap="round" stroke-linejoin="round" stroke="rgb(0%, 0%, 0%)" stroke-opacity="1" stroke-miterlimit="10" d="M 474.445312 226.019531 C 474.445312 235.644531 466.644531 243.445312 457.019531 243.445312 C 447.394531 243.445312 439.59375 235.644531 439.59375 226.019531 C 439.59375 216.394531 447.394531 208.59375 457.019531 208.59375 C 466.644531 208.59375 474.445312 216.394531 474.445312 226.019531 "/>
<g fill="rgb(100%, 100%, 100%)" fill-opacity="1">
<use xlink:href="#glyph-0-1" x="42.480469" y="229.519531"/>
</g>
<g fill="rgb(100%, 100%, 100%)" fill-opacity="1">
<use xlink:href="#glyph-0-2" x="350.507812" y="29.480469"/>
</g>
<g fill="rgb(100%, 100%, 100%)" fill-opacity="1">
<use xlink:href="#glyph-0-3" x="248.5" y="229.519531"/>
</g>
<g fill="rgb(100%, 100%, 100%)" fill-opacity="1">
<use xlink:href="#glyph-0-4" x="453.519531" y="229.519531"/>
</g>
<path fill-rule="nonzero" fill="rgb(100%, 100%, 100%)" fill-opacity="1" stroke-width="0.533489" stroke-linecap="round" stroke-linejoin="round" stroke="rgb(0%, 0%, 0%)" stroke-opacity="1" stroke-miterlimit="10" d="M 49.933594 219.765625 L 100.816406 219.765625 L 100.726562 219.761719 L 101.074219 219.75 L 101.414062 219.679688 L 101.742188 219.554688 L 102.042969 219.382812 L 102.3125 219.164062 L 102.542969 218.902344 L 102.726562 218.609375 L 102.863281 218.289062 L 102.945312 217.953125 L 102.976562 217.605469 L 102.976562 206.726562 L 102.945312 206.378906 L 102.863281 206.039062 L 102.726562 205.722656 L 102.542969 205.425781 L 102.3125 205.167969 L 102.042969 204.949219 L 101.742188 204.773438 L 101.414062 204.648438 L 101.074219 204.582031 L 100.816406 204.566406 L 49.933594 204.566406 L 50.195312 204.582031 L 49.847656 204.566406 L 49.503906 204.609375 L 49.167969 204.707031 L 48.855469 204.855469 L 48.570312 205.050781 L 48.316406 205.292969 L 48.109375 205.570312 L 47.949219 205.878906 L 47.835938 206.207031 L 47.78125 206.550781 L 47.773438 206.726562 L 47.773438 217.605469 L 47.78125 217.429688 L 47.78125 217.777344 L 47.835938 218.121094 L 47.949219 218.453125 L 48.109375 218.757812 L 48.316406 219.039062 L 48.570312 219.277344 L 48.855469 219.476562 L 49.167969 219.625 L 49.503906 219.722656 L 49.847656 219.761719 Z M 49.933594 219.765625 "/>
<g fill="rgb(0%, 0%, 0%)" fill-opacity="1">
<use xlink:href="#glyph-1-1" x="51.375" y="215.664062"/>
<use xlink:href="#glyph-1-2" x="60.375" y="215.664062"/>
<use xlink:href="#glyph-1-3" x="66.375" y="215.664062"/>
<use xlink:href="#glyph-1-4" x="72.375" y="215.664062"/>
<use xlink:href="#glyph-1-5" x="78.375" y="215.664062"/>
<use xlink:href="#glyph-1-6" x="81.375" y="215.664062"/>
<use xlink:href="#glyph-1-7" x="87.375" y="215.664062"/>
<use xlink:href="#glyph-1-2" x="93.375" y="215.664062"/>
</g>
<path fill-rule="nonzero" fill="rgb(100%, 100%, 100%)" fill-opacity="1" stroke-width="0.533489" stroke-linecap="round" stroke-linejoin="round" stroke="rgb(0%, 0%, 0%)" stroke-opacity="1" stroke-miterlimit="10" d="M 364.203125 26.21875 L 430.085938 26.21875 L 429.996094 26.214844 L 430.34375 26.203125 L 430.683594 26.132812 L 431.011719 26.007812 L 431.3125 25.835938 L 431.582031 25.617188 L 431.8125 25.355469 L 431.996094 25.0625 L 432.132812 24.742188 L 432.214844 24.402344 L 432.246094 24.058594 L 432.246094 13.175781 L 432.214844 12.832031 L 432.132812 12.492188 L 431.996094 12.171875 L 431.8125 11.878906 L 431.582031 11.621094 L 431.3125 11.398438 L 431.011719 11.226562 L 430.683594 11.101562 L 430.34375 11.035156 L 430.085938 11.019531 L 364.203125 11.019531 L 364.464844 11.035156 L 364.117188 11.019531 L 363.773438 11.0625 L 363.4375 11.15625 L 363.125 11.308594 L 362.839844 11.503906 L 362.585938 11.746094 L 362.378906 12.023438 L 362.21875 12.332031 L 362.105469 12.660156 L 362.050781 13.003906 L 362.042969 13.175781 L 362.042969 24.058594 L 362.050781 23.882812 L 362.050781 24.230469 L 362.105469 24.574219 L 362.21875 24.902344 L 362.378906 25.210938 L 362.585938 25.488281 L 362.839844 25.730469 L 363.125 25.929688 L 363.4375 26.078125 L 363.773438 26.175781 L 364.117188 26.214844 Z M 364.203125 26.21875 "/>
<g fill="rgb(0%, 0%, 0%)" fill-opacity="1">
<use xlink:href="#glyph-1-8" x="365.644531" y="22.117188"/>
<use xlink:href="#glyph-1-4" x="373.644531" y="22.117188"/>
<use xlink:href="#glyph-1-3" x="379.644531" y="22.117188"/>
<use xlink:href="#glyph-1-9" x="385.644531" y="22.117188"/>
<use xlink:href="#glyph-1-4" x="388.644531" y="22.117188"/>
<use xlink:href="#glyph-1-10" x="394.644531" y="22.117188"/>
<use xlink:href="#glyph-1-3" x="400.644531" y="22.117188"/>
<use xlink:href="#glyph-1-11" x="406.644531" y="22.117188"/>
<use xlink:href="#glyph-1-2" x="412.644531" y="22.117188"/>
<use xlink:href="#glyph-1-12" x="418.644531" y="22.117188"/>
<use xlink:href="#glyph-1-13" x="422.644531" y="22.117188"/>
</g>
<path fill-rule="nonzero" fill="rgb(100%, 100%, 100%)" fill-opacity="1" stroke-width="0.533489" stroke-linecap="round" stroke-linejoin="round" stroke="rgb(0%, 0%, 0%)" stroke-opacity="1" stroke-miterlimit="10" d="M 255.417969 219.789062 L 305.300781 219.789062 L 305.210938 219.785156 L 305.558594 219.773438 L 305.898438 219.703125 L 306.226562 219.578125 L 306.527344 219.40625 L 306.796875 219.183594 L 307.027344 218.925781 L 307.210938 218.632812 L 307.347656 218.3125 L 307.429688 217.972656 L 307.460938 217.628906 L 307.460938 206.746094 L 307.429688 206.402344 L 307.347656 206.0625 L 307.210938 205.742188 L 307.027344 205.449219 L 306.796875 205.191406 L 306.527344 204.96875 L 306.226562 204.796875 L 305.898438 204.671875 L 305.558594 204.601562 L 305.300781 204.585938 L 255.417969 204.585938 L 255.679688 204.601562 L 255.332031 204.589844 L 254.988281 204.632812 L 254.652344 204.726562 L 254.339844 204.875 L 254.054688 205.074219 L 253.800781 205.316406 L 253.59375 205.59375 L 253.433594 205.902344 L 253.320312 206.230469 L 253.265625 206.574219 L 253.257812 206.746094 L 253.257812 217.628906 L 253.265625 217.453125 L 253.265625 217.800781 L 253.320312 218.144531 L 253.433594 218.472656 L 253.59375 218.78125 L 253.800781 219.058594 L 254.054688 219.300781 L 254.339844 219.496094 L 254.652344 219.648438 L 254.988281 219.742188 L 255.332031 219.785156 Z M 255.417969 219.789062 "/>
<g fill="rgb(0%, 0%, 0%)" fill-opacity="1">
<use xlink:href="#glyph-1-14" x="256.859375" y="215.6875"/>
<use xlink:href="#glyph-1-15" x="263.859375" y="215.6875"/>
<use xlink:href="#glyph-1-7" x="269.859375" y="215.6875"/>
<use xlink:href="#glyph-1-4" x="275.859375" y="215.6875"/>
<use xlink:href="#glyph-1-13" x="281.859375" y="215.6875"/>
<use xlink:href="#glyph-1-10" x="287.859375" y="215.6875"/>
<use xlink:href="#glyph-1-12" x="293.859375" y="215.6875"/>
<use xlink:href="#glyph-1-2" x="297.859375" y="215.6875"/>
</g>
<path fill-rule="nonzero" fill="rgb(100%, 100%, 100%)" fill-opacity="1" stroke-width="0.533489" stroke-linecap="round" stroke-linejoin="round" stroke="rgb(0%, 0%, 0%)" stroke-opacity="1" stroke-miterlimit="10" d="M 399.464844 240.976562 L 447.347656 240.976562 L 447.257812 240.972656 L 447.605469 240.957031 L 447.945312 240.890625 L 448.273438 240.765625 L 448.574219 240.59375 L 448.84375 240.371094 L 449.074219 240.113281 L 449.257812 239.820312 L 449.394531 239.5 L 449.476562 239.160156 L 449.507812 238.816406 L 449.507812 227.933594 L 449.476562 227.589844 L 449.394531 227.25 L 449.257812 226.929688 L 449.074219 226.636719 L 448.84375 226.375 L 448.574219 226.15625 L 448.273438 225.984375 L 447.945312 225.859375 L 447.605469 225.789062 L 447.347656 225.773438 L 399.464844 225.773438 L 399.726562 225.789062 L 399.378906 225.777344 L 399.035156 225.820312 L 398.699219 225.914062 L 398.386719 226.0625 L 398.101562 226.261719 L 397.847656 226.503906 L 397.640625 226.78125 L 397.480469 227.089844 L 397.367188 227.417969 L 397.3125 227.761719 L 397.304688 227.933594 L 397.304688 238.816406 L 397.3125 238.640625 L 397.3125 238.988281 L 397.367188 239.332031 L 397.480469 239.660156 L 397.640625 239.96875 L 397.847656 240.246094 L 398.101562 240.488281 L 398.386719 240.683594 L 398.699219 240.835938 L 399.035156 240.929688 L 399.378906 240.972656 Z M 399.464844 240.976562 "/>
<g fill="rgb(0%, 0%, 0%)" fill-opacity="1">
<use xlink:href="#glyph-1-16" x="400.90625" y="236.875"/>
<use xlink:href="#glyph-1-10" x="409.90625" y="236.875"/>
<use xlink:href="#glyph-1-5" x="415.90625" y="236.875"/>
<use xlink:href="#glyph-1-17" x="418.90625" y="236.875"/>
<use xlink:href="#glyph-1-4" x="424.90625" y="236.875"/>
<use xlink:href="#glyph-1-18" x="430.90625" y="236.875"/>
<use xlink:href="#glyph-1-2" x="439.90625" y="236.875"/>
</g>
</svg>
